<?xml version="1.0" encoding="UTF-8" standalone="no"?>
<!-- Created with Inkscape (http://www.inkscape.org/) -->

<svg
   xmlns:dc="http://purl.org/dc/elements/1.1/"
   xmlns:cc="http://creativecommons.org/ns#"
   xmlns:rdf="http://www.w3.org/1999/02/22-rdf-syntax-ns#"
   xmlns:svg="http://www.w3.org/2000/svg"
   xmlns="http://www.w3.org/2000/svg"
   xmlns:sodipodi="http://sodipodi.sourceforge.net/DTD/sodipodi-0.dtd"
   xmlns:inkscape="http://www.inkscape.org/namespaces/inkscape"
   width="210mm"
   height="297mm"
   id="svg10794"
   version="1.1"
   inkscape:version="0.91pre2 r13516"
   viewBox="0 0 744.09447 1052.3622"
   sodipodi:docname="drawing_minimi.svg">
  <defs
     id="defs10796" />
  <sodipodi:namedview
     id="base"
     pagecolor="#ffffff"
     bordercolor="#666666"
     borderopacity="1.0"
     inkscape:pageopacity="0.0"
     inkscape:pageshadow="2"
     inkscape:zoom="0.35"
     inkscape:cx="134.33343"
     inkscape:cy="520"
     inkscape:document-units="px"
     inkscape:current-layer="layer1"
     showgrid="false"
     inkscape:window-width="1280"
     inkscape:window-height="991"
     inkscape:window-x="-9"
     inkscape:window-y="-9"
     inkscape:window-maximized="1" />
  <metadata
     id="metadata10799">
    <rdf:RDF>
      <cc:Work
         rdf:about="">
        <dc:format>image/svg+xml</dc:format>
        <dc:type
           rdf:resource="http://purl.org/dc/dcmitype/StillImage" />
        <dc:title></dc:title>
      </cc:Work>
    </rdf:RDF>
  </metadata>
  <g
     inkscape:label="Ebene 1"
     inkscape:groupmode="layer"
     id="layer1">
    <path
       id="path8982-0-4"
       style="fill:#aa0000;stroke-width:0.1;stroke-miterlimit:4;stroke-dasharray:none"
       d="m 335.05562,732.43305 c -3.85187,-1.97529 -5.62543,-6.02467 -4.94917,-11.16059 1.34366,-10.32103 4.07573,-11.90121 20.45488,-12.04935 l 12.56759,0 0.44746,-2.96302 c 0,-1.97529 -0.44746,-3.45678 -2.1946,-4.44449 -9.03388,-6.81477 -19.83676,-25.72851 -22.61813,-39.60515 -1.79151,-8.98768 -2.91131,-28.09891 -2.82169,-47.70406 l 0,-19.60501 -3.00081,-5.87652 c -4.96257,-9.58029 -5.40144,-10.1729 -10.63274,-13.28404 -4.38934,-2.46922 -5.98378,-2.96301 -12.40643,-2.96301 -4.03098,0 -9.26672,0 -11.5867,1.48151 -7.01839,1.97528 -16.15972,10.81481 -33.01805,31.60517 -8.59931,10.66667 -16.86275,20.49391 -18.36771,21.77779 -1.47803,1.4815 -7.35423,6.96306 -12.99761,12.54328 -15.20562,15.01249 -33.42544,28.39535 -44.50617,32.49408 -13.71861,5.18526 -34.94391,3.45678 -47.50694,-3.45679 -3.6279,-1.97529 -7.41251,-4.44451 -8.37545,-5.62971 -0.94044,-0.98812 -3.40391,-2.963 -5.43735,-4.44449 -3.89662,-2.96287 -11.75698,-14.41977 -14.99958,-22.22225 -1.03019,-2.46922 -2.77695,-9.82724 -3.807,-16.24703 l -1.88112,-11.75321 1.97062,-13.67914 c 2.23946,-15.30866 2.37384,-16.14823 4.79242,-22.81485 4.52358,-12.7409 8.67996,-22.22237 11.67634,-26.71621 1.83625,-2.46922 4.85057,-7.65447 6.75851,-11.01244 6.669,-11.60505 14.283,-18.96308 27.71064,-26.91372 6.69137,-3.95071 14.69507,-8.14825 17.79434,-9.38279 16.07464,-6.46913 35.80383,-9.77791 57.46358,-9.82724 20.54436,0 32.0819,1.97529 44.6136,8.24692 5.1686,2.46922 21.43576,13.08656 27.49563,17.82736 3.94136,2.963 14.30095,13.38271 14.30095,14.22228 0,1.48149 5.37452,5.58022 6.06885,4.44449 0.44746,0 0.94044,-4.44449 1.29879,-8.54323 l 0.62696,-7.605 -3.76225,-0.98812 c -2.6872,-0.98813 -5.06104,-2.96301 -8.17826,-6.81492 -4.8775,-6.12349 -11.49722,-11.25925 -20.72361,-15.85192 -6.53907,-3.45678 -15.62666,-9.03716 -19.35302,-12.14816 -1.29892,-0.98814 -5.04321,-3.95071 -8.37999,-6.91373 -12.96615,-10.56798 -27.16863,-24.04951 -28.53467,-27.01251 -0.44746,-0.98813 -1.61239,-2.46908 -2.5977,-2.96286 -0.98468,-0.98814 -2.68732,-2.46922 -3.71739,-3.95073 -1.07442,-1.48149 -2.64257,-2.96286 -3.53838,-3.45678 -4.34446,-3.95057 -21.84329,-31.95081 -21.84329,-35.21011 0,0 -0.94042,-3.4568 -2.10511,-6.37032 -2.82156,-7.50618 -3.94136,-12.4446 -5.17745,-21.87675 -1.43327,-11.35808 -0.44746,-36.19769 2.10498,-47.16064 1.03018,-4.44451 2.28422,-10.66683 2.77694,-13.28405 0.49298,-2.46921 1.97062,-7.16054 3.31428,-10.07421 1.29892,-2.963 2.86645,-7.16054 3.44878,-9.48146 1.29879,-5.18525 5.90756,-13.97544 9.08748,-17.53105 1.29891,-1.4815 3.00092,-3.95059 3.80711,-5.33327 2.55284,-5.08658 11.26869,-13.33351 20.71009,-19.85197 12.62131,-8.74086 19.25456,-11.60505 29.83358,-12.9384 18.16167,-2.46922 29.57824,3.45678 50.78104,26.46926 9.73692,10.41984 21.85226,36.69161 21.85226,47.35828 0,8.54337 -6.51671,34.61751 -16.715,66.86462 -5.45529,17.23461 -7.54246,22.41986 -14.13524,34.91381 -10.38638,19.70383 -12.40188,27.30883 -12.45573,47.01266 0,14.12345 1.20967,20.54324 5.39702,28.24705 1.5229,2.963 3.3144,6.41979 3.85187,7.99997 0.76094,1.97543 3.17992,3.95071 9.45922,7.80262 l 8.40238,5.03696 1.56752,-2.46907 c 0.85069,-1.48151 1.79163,-3.4568 2.06036,-5.03711 0.44746,-1.48149 2.06024,-5.03709 3.94136,-8.14812 1.88114,-2.963 3.40391,-5.97533 3.40391,-6.32112 0,-1.97529 8.42916,-12.14816 15.68038,-18.46915 11.80627,-10.3705 22.14792,-15.25946 34.59012,-16.494 3.58301,0 8.85008,-0.98813 11.72549,-1.48149 4.89989,-0.98813 13.83971,0 16.03432,1.48149 0.44746,0 3.49352,1.48151 6.70478,2.46922 6.91979,2.46907 17.4585,8.24692 22.30465,12.4938 1.88113,1.48151 6.31065,5.33341 9.78623,8.14827 8.31275,6.81477 15.50127,14.86421 19.24558,21.58029 1.70187,2.96302 3.44864,5.62971 4.03097,5.92602 1.56753,0.98813 10.7895,-5.53089 14.44418,-9.77777 10.21625,-12.00017 16.01637,-29.08662 16.35677,-48.24733 0,-10.66667 0,-13.33337 -2.91132,-26.71608 -1.74663,-8.14826 -3.62775,-18.66678 -4.16521,-23.30891 -0.58271,-4.44436 -1.61239,-11.80253 -2.3291,-15.90126 -0.71671,-3.95058 -1.52278,-14.61738 -1.74663,-23.40757 -0.44748,-14.61739 -0.44748,-16.74083 1.56751,-24.39517 2.86645,-11.85186 7.80221,-21.87673 17.00169,-34.56817 6.80338,-9.38266 8.71585,-11.40742 13.00203,-13.53085 2.77695,-1.48151 5.61202,-2.96302 6.3286,-3.95073 1.83638,-1.97529 7.86934,-3.45678 17.33311,-3.95057 12.35271,-0.98814 17.42714,-0.49338 24.87543,1.97528 3.7175,1.48151 9.17722,2.963 12.12873,2.963 8.51423,0.98814 12.40188,3.9506 25.24276,19.60502 9.74148,11.90135 12.00332,15.3088 14.48903,21.77793 4.81025,12.49395 5.86723,25.23473 3.44865,41.97554 -1.47803,10.17289 -7.44829,33.43232 -10.25644,40.00026 -1.03018,2.46922 -3.18005,7.4075 -4.71621,11.1606 -7.65887,18.27166 -22.26889,37.97548 -34.33037,46.22242 -1.97062,1.48149 -4.34446,3.45678 -5.32079,4.44449 -0.94044,0.98814 -7.1841,5.33342 -13.84856,9.53096 -6.65562,3.95057 -12.70208,8.19758 -13.43207,9.03702 -2.55295,2.46922 -10.08188,6.71609 -18.22436,9.62976 -4.52813,1.48149 -13.58438,5.48155 -20.11903,8.59256 -6.53905,2.963 -12.45118,5.72852 -13.15435,5.72852 -0.71671,0 -2.41847,0.98813 -3.85174,2.46908 -2.23949,2.4692 -2.86643,2.4692 -4.34446,1.48149 -1.29892,-0.98813 -2.23949,-0.98813 -3.94138,0 -2.5082,1.48151 -2.82169,2.963 -0.98467,7.50618 1.07442,2.46922 1.07442,3.45693 0,5.53104 -0.67246,1.48136 -1.3884,2.96286 -1.61239,3.45678 -0.67246,1.48151 -4.16535,18.76545 -4.6266,22.51855 -0.62695,5.08658 1.4779,4.4445 5.02515,-1.48138 5.70606,-9.72856 16.65242,-23.06193 23.84536,-29.08662 5.93007,-5.03709 9.53103,-7.01238 19.63074,-11.11125 12.23616,-5.03697 12.51387,-5.03697 25.91458,-5.38274 12.38848,0 14.24724,0 21.84783,2.46922 4.56832,1.4815 10.56551,3.95057 13.32449,5.77785 2.77682,1.48136 5.99719,3.4568 7.18854,3.95058 7.48418,2.963 15.32658,8.39508 26.4341,19.11122 4.29972,3.95058 9.57577,8.98769 11.74344,10.81483 3.76225,2.963 8.68451,9.62974 14.26518,18.86439 1.38842,2.46909 4.38922,6.66663 6.62869,9.72844 7.5154,10.12355 10.07291,16.14822 11.93153,28.14824 2.23949,14.4199 3.5384,27.40763 3.5384,35.25945 0,9.67909 -5.25823,27.30883 -11.53754,38.66691 -5.92551,10.76561 -9.19503,14.56804 -17.23008,20.0496 -9.34736,6.37032 -16.27613,8.29627 -23.53178,6.51846 -2.46345,0 -6.38244,-1.4815 -8.72481,-1.97528 -5.37908,-1.48151 -11.24631,-6.66661 -22.74353,-20.59274 -14.19793,-17.2346 -22.83756,-29.33343 -25.14871,-35.35825 -1.20967,-2.96287 -2.86643,-6.02469 -3.807,-6.61729 -0.8962,-0.49336 -3.31428,-3.95058 -5.31195,-7.65432 -2.01537,-3.4568 -5.23572,-9.08649 -7.16602,-12.09884 -1.926,-2.963 -5.42395,-8.889 -7.76632,-13.03707 -2.32908,-3.95071 -4.69383,-7.45684 -5.22233,-7.45684 -0.5372,0 -3.09042,-2.46922 -5.68369,-5.82719 -2.5977,-2.963 -4.97156,-5.82719 -5.294,-5.82719 -0.44747,0 -2.86644,-1.97543 -5.66576,-3.95072 -11.12091,-9.0865 -26.21011,-10.02473 -30.74265,-1.97528 -1.03019,1.97528 -3.31441,5.18525 -4.95361,7.35802 l -3.04566,3.95072 1.16416,6.1235 c 0.62695,3.45677 1.56765,7.06171 2.06037,8.24692 1.07442,2.46908 3.22465,22.46919 3.1799,29.18529 0,2.46922 -0.44745,5.92601 -0.80645,7.40751 -0.44746,1.4815 -1.03017,4.4445 -1.29892,6.5186 -0.44745,1.9753 -2.28409,8.04931 -4.3892,13.23456 -2.14985,5.08644 -3.85174,9.92606 -3.85174,10.71616 0,2.4692 -8.64874,12.88891 -12.9932,15.90126 -5.47754,3.95071 -11.35387,9.82723 -10.78948,10.96311 0.76095,1.48149 6.07328,0.98813 11.94948,-0.98814 10.14016,-2.963 17.03302,0.49337 17.03302,9.6791 0,5.03695 -0.94044,6.41979 -7.36764,10.46917 -5.19539,2.963 -7.0362,3.4568 -14.01427,2.46909 -4.43407,0 -6.22115,0 -10.3999,1.48149 -9.94297,4.4445 -16.04318,6.27165 -18.57817,5.67905 -5.13727,-1.48151 -8.10216,-9.23466 -5.08797,-13.67901 0.58271,-0.98814 0.76095,-2.46922 0.49297,-2.96302 -0.44746,-1.48149 -1.47802,-1.48149 -6.81677,-0.98811 -3.44877,0 -9.1144,0.98811 -12.58554,0.98811 -3.44865,0 -8.05742,0.49338 -10.18036,0.98814 -3.807,0.49337 -3.85187,0.98813 -3.85187,4.44451 0,4.44437 -2.86643,10.4197 -6.09564,12.49381 -1.70202,0.98812 -5.88973,0.98812 -19.20083,0 -11.16567,0 -18.04526,0 -19.93081,0 -5.65222,1.97542 -14.35469,2.963 -17.08232,1.48149 z m 18.39451,-8.49389 c 3.85187,-0.98814 8.71585,-1.48151 20.86695,-0.98814 17.78991,0 17.7496,0 18.47516,-7.01238 l 0.44745,-3.95059 -4.87736,0 c -2.68734,0 -7.26475,-0.98812 -10.19389,-1.97529 -6.17187,-2.4692 -8.56353,-1.97528 -10.26555,1.48151 -1.83625,3.95058 -4.21009,4.44437 -17.19873,3.95058 -13.53053,-0.98814 -15.69379,0 -15.69379,5.03711 0,5.18525 2.06024,6.66674 8.14248,5.87652 2.86645,0 7.56483,-1.4815 10.3462,-1.97528 z m 97.35654,-6.76543 c 6.74952,-2.46922 9.54441,-2.963 16.6523,-2.963 7.32732,0 8.86361,0 10.82083,-1.97529 2.64257,-2.46922 2.86643,-3.95071 0.85069,-6.46913 -2.01549,-2.963 -10.07291,-2.46922 -15.29524,0 -3.26953,1.48151 -4.59967,1.97529 -7.68111,0.98814 -2.06037,0 -3.85187,-1.48151 -3.98625,-1.97543 0,-0.49337 -0.76093,-1.9753 -1.43314,-2.96286 -1.16418,-1.97544 -1.38854,-1.97544 -7.54246,0.98812 l -6.3554,2.96286 -0.67247,5.77786 c -0.44745,2.96301 -0.49296,6.41979 -0.44745,7.16055 0.71669,1.97529 6.29271,1.48149 14.9145,-1.9753 z m -30.47406,-12.29632 c 11.20611,-2.46922 25.92798,-8.5927 35.09167,-14.22241 11.39421,-7.0124 19.66663,-16.59267 24.55754,-28.39521 1.7915,-3.95058 3.1799,-8.39508 3.1799,-9.28397 0,-0.98814 0.76095,-4.44451 1.74677,-7.65434 2.64257,-9.13583 2.4186,-26.9137 -0.44746,-36.74096 -1.16418,-3.95071 -3.09042,-8.59269 -4.29959,-10.12354 -1.34367,-1.4815 -2.19474,-3.95071 -2.19474,-5.92601 0,-2.46907 -0.44746,-3.45678 -3.17991,-4.44449 -2.95606,-0.98813 -3.67264,-0.98813 -10.61935,3.45693 -12.51387,7.65432 -21.14011,12.29632 -23.89455,12.88891 -1.43327,0 -4.56844,1.48151 -6.95568,2.46908 -10.18933,4.44451 -43.22076,5.67919 -55.90036,1.97543 -7.65887,-1.97543 -22.87346,-8.889 -25.13518,-11.11125 -0.71671,-0.49338 -3.09042,-2.46909 -5.29855,-3.95058 -3.13518,-1.9753 -4.16535,-2.46922 -4.83263,-1.48151 -0.49298,0.98814 -0.76095,12.98773 -0.67247,30.17301 0,23.20995 0.44747,30.27182 1.70189,36.54346 1.92599,9.92592 7.22443,23.06181 12.10193,30.02486 5.17745,7.40737 15.95354,14.22227 25.47103,16.04942 1.74676,0 3.35916,0.98813 3.58314,0.98813 0.8962,0.98814 30.19635,0 35.96955,-1.48151 z m 217.45205,-7.25935 c 6.97805,-2.46908 15.96706,-9.9754 20.79528,-17.13594 5.24027,-7.75314 11.16123,-21.77793 12.97966,-30.6668 1.56752,-7.65433 0.76095,-27.01252 -1.92588,-45.23484 -1.97073,-13.58034 -3.44876,-16.88897 -15.27287,-33.97557 -10.25657,-14.86422 -16.1104,-22.07411 -20.54891,-25.33341 -1.88112,-1.48149 -5.25809,-3.95071 -7.48861,-6.32111 -5.69708,-5.28394 -14.94586,-13.08641 -17.49439,-14.7654 -12.28545,-8.04945 -36.9996,-17.48157 -42.89376,-16.34586 -1.88112,0 -7.55585,0.98814 -12.56317,1.48151 -10.0729,0.98814 -21.24754,4.44451 -29.43048,9.58029 -13.76791,8.49389 -31.84452,32.98786 -36.44873,49.38305 -2.105,7.40736 -2.105,6.86424 0,6.86424 1.03018,0 2.73207,-1.97529 4.34446,-4.44451 5.61645,-9.97539 17.00167,-19.55568 27.46428,-23.0618 5.79557,-1.97544 8.99343,-2.46922 21.18485,-2.46922 19.78746,0 27.79572,1.97529 42.4056,9.03716 15.77455,7.75314 27.15081,16.44453 26.70283,20.34577 -0.44746,3.95057 -3.94136,3.45679 -7.95883,-0.98814 -4.7296,-5.48155 -11.33149,-10.61733 -15.66699,-12.14816 -1.92586,-0.49337 -4.59082,-2.46922 -5.91653,-3.45693 -1.29892,-1.48151 -3.85187,-2.46908 -5.6344,-2.96286 -1.7915,0 -4.78333,-0.98814 -6.69139,-1.48151 -11.9898,-3.45693 -33.16125,-4.44451 -42.46829,-1.97543 -5.30738,1.4815 -15.85065,6.07416 -16.5001,7.35817 -0.44747,0.49338 -2.59771,2.46907 -5.20438,4.44436 -2.59771,1.97544 -4.52813,3.95073 -4.29972,4.44451 0.44746,0.49337 1.926,0.98813 3.76224,0.98813 1.8364,0 7.55587,1.48151 12.76025,3.95071 8.20076,3.4568 10.32824,5.03698 15.97149,10.61734 12.84087,13.18522 30.29495,37.43223 35.37393,49.23475 2.0155,4.44451 6.5435,11.90135 12.33918,19.55569 3.13518,3.95071 8.57694,11.55571 12.13315,16.44466 6.03296,8.34561 19.29488,22.32105 24.23053,25.53102 3.53826,2.46907 11.47029,5.08644 14.81592,5.18512 1.74676,0 4.94475,0 7.19308,-1.48151 z M 185.71773,667.93884 c 11.88679,-3.95058 40.45279,-24.98775 48.26839,-35.65458 0.94044,-1.48135 3.67264,-3.95057 6.06886,-5.7777 2.37372,-1.97529 10.97757,-11.50624 19.10223,-21.33348 15.26832,-18.4693 25.84734,-30.0742 27.47769,-30.0742 0.53721,0 2.82169,-1.4815 5.05662,-2.96301 3.40389,-2.4692 5.55376,-3.45678 12.40188,-4.44449 5.87178,-0.98814 9.56679,-0.98814 12.68401,0 5.58965,1.48149 6.0509,1.48149 6.0509,0 0,-2.46922 -7.43489,-10.22236 -13.00205,-13.28403 -10.58345,-5.67905 -15.66243,-6.7161 -30.42918,-6.22232 -14.83842,0.49337 -24.1768,2.46922 -30.67555,6.5186 -2.37384,1.48151 -4.86852,2.46908 -5.52697,2.46908 -0.67245,0 -3.58301,1.48151 -6.50316,2.963 -2.9113,1.48151 -9.58473,5.53089 -14.82502,8.44456 -14.44429,7.99997 -24.1275,18.07417 -30.89953,32.00014 -3.71738,7.60501 -5.08797,8.98769 -5.07443,5.03711 0,-7.90128 11.70767,-25.58035 22.27772,-33.7286 8.36647,-6.46913 22.83301,-15.06184 33.61808,-19.95079 23.0168,-10.4692 42.02942,-12.79012 59.57311,-7.3087 10.1624,2.963 14.61444,6.37046 25.49795,18.07431 3.13518,3.45679 6.27035,6.07402 7.00045,6.07402 1.92587,0 0.94043,-6.12349 -2.32897,-14.41977 -1.43329,-3.45691 -2.64257,-7.21001 -2.64257,-7.85195 0,-4.4445 -14.14409,-21.23467 -24.27086,-28.64217 -2.64244,-1.97529 -5.54921,-4.44449 -6.49874,-5.38273 -1.79151,-1.97529 -12.01672,-7.605 -22.10304,-12.24699 -3.09042,-1.48151 -9.18606,-3.4568 -13.52169,-3.95057 -11.8778,-1.97529 -33.75699,-2.963 -40.30503,-1.97529 -3.04554,0 -9.05169,1.48135 -13.34243,1.97529 -11.83762,1.48149 -25.58316,5.03695 -29.59165,7.40737 -1.97075,0.98811 -5.15066,2.4692 -7.06313,2.96299 -1.88113,0 -4.38933,1.4815 -5.48665,2.46921 -1.11992,0.98813 -2.55295,1.48151 -3.26953,1.48151 -3.31428,0 -24.3827,19.50619 -24.3827,22.51854 0,0.98812 -2.50821,5.0371 -9.53545,15.6051 -2.14985,2.963 -4.75211,8.29627 -5.79114,11.1606 -1.03019,2.96286 -2.86656,8.09878 -4.12061,11.45675 -1.25391,3.45693 -2.23935,7.06187 -2.23935,8.09892 0,0.98813 -0.76095,5.33326 -1.65726,9.67896 -2.64246,12.59276 -2.91119,17.82734 -1.47803,26.51873 3.13529,18.46928 6.55259,27.55577 13.62015,35.90139 7.49758,8.93834 14.06357,13.13589 23.74236,15.35814 8.42474,1.97542 28.2749,1.97542 34.07059,0 z M 426.0431,603.24713 c 10.98667,-1.97529 20.03839,-5.87653 32.16256,-13.531 12.59009,-7.95064 19.69796,-15.70378 21.75821,-23.6544 1.61239,-6.17283 3.7175,-20.29643 4.50119,-30.46932 0.49299,-6.17283 0.44748,-7.65432 -1.25391,-10.76548 -2.28409,-4.44451 -8.50527,-11.55571 -12.3168,-13.92597 -1.61228,-0.98814 -5.05662,-3.95071 -7.68113,-6.32113 -6.35994,-5.92586 -12.87222,-9.97539 -26.61333,-16.3457 -12.08828,-5.67905 -12.47798,-5.72852 -30.2679,-5.67905 -12.75126,0 -25.84293,4.44451 -34.30343,11.50624 -9.87143,8.19759 -22.06727,22.07422 -27.18659,30.81494 -2.10498,3.4568 -3.85174,6.86424 -3.85174,7.16054 0,0 -1.34366,2.963 -3.04568,6.4198 -3.49351,6.71609 -3.76224,10.17289 -1.3884,19.25938 1.47803,5.72837 2.82169,12.49394 3.98612,19.60501 1.25391,7.75314 25.95047,23.40758 41.62631,26.32125 7.73054,1.48151 35.15438,0.98813 43.8524,0 z m -27.88962,-14.17294 c -1.70202,-0.98813 -6.26149,-5.62971 -7.15276,-7.35803 -0.94043,-1.97529 0.94043,-5.58036 2.77694,-5.58036 0.85069,0 2.41847,0.98813 3.4934,2.4692 2.14986,2.96301 7.11685,3.95059 11.38522,2.96301 1.97075,0 3.58314,-1.97528 5.45529,-5.33341 3.00081,-5.18525 4.92224,-5.926 4.92224,-1.97528 0,1.4815 -1.29891,4.4445 -3.44876,7.25921 -2.68732,3.45693 -4.6266,5.03711 -8.50527,6.32112 -5.40156,1.97529 -6.7451,1.97529 -8.89951,0.98813 z m 0.45227,-27.90143 c -0.8962,-1.97529 1.97073,-5.03696 3.22478,-3.45678 0.53722,0.49338 0.76094,1.97529 0.44747,2.963 -0.62696,1.97529 -2.82169,1.97529 -3.67264,0 z m 10.35061,0 c -0.62696,-1.97529 1.07442,-5.03696 2.82169,-5.03696 1.83638,0 1.11993,5.77772 -0.80646,6.17283 -0.80643,0 -1.7915,0 -2.06023,-1.48151 z m -36.55176,-4.00005 c -6.38688,-1.48135 -8.90393,-8.19745 -6.70035,-17.53091 2.28422,-9.43212 8.55014,-15.16051 15.1026,-13.62967 12.82747,2.963 15.02651,14.22228 5.11045,26.41991 -3.67275,4.44437 -8.20972,6.07402 -13.5127,4.44437 z m 14.38603,-16.09875 c 0.44746,-3.95071 0,-3.95071 -3.44877,-6.07416 -2.06025,-0.98811 -4.82809,-1.97528 -6.15835,-1.97528 -3.13517,0 -6.66901,4.4445 -6.66901,8.59257 0,3.4568 0,3.4568 5.79114,0.98814 4.6132,-1.48151 4.65353,-1.48151 6.00615,0 2.06024,3.45678 4.16536,2.4692 4.50121,-2.46909 z m 44.68084,14.66673 c -2.10498,-0.98813 -3.04554,-2.46922 -4.16523,-6.76543 l -1.43327,-5.28407 2.95605,-5.67904 c 4.50563,-8.59257 5.58511,-9.43212 12.92139,-10.12355 7.60061,0 10.38197,0.98813 11.96302,6.71609 1.34366,5.03711 0.49296,8.34575 -3.76226,14.51871 -5.33873,7.80248 -11.87781,10.12341 -18.51105,6.61729 z m 4.49679,-13.18522 c 0.44745,0 2.28422,-1.48151 4.03097,-1.97542 2.73207,-0.98814 3.53826,-0.49338 5.33875,0.98813 2.95606,2.963 3.98612,2.4692 3.98612,-0.98813 0,-2.46909 -0.44748,-2.96287 -1.56754,-2.96287 -0.85067,0 -2.32896,-0.49337 -3.26952,-1.48151 -1.97075,-1.97542 -5.02982,-1.97542 -7.36321,-0.49337 -1.43329,0.98814 -4.29972,6.12349 -4.29972,7.85181 0,0.98814 2.1946,0 3.09042,0 z M 340.0584,523.29608 c 5.08352,-9.18529 23.99313,-29.8767 33.03143,-36.14833 5.80909,-3.95073 19.33065,-9.13598 28.15394,-10.51867 9.09658,-1.4815 18.91869,0 28.18086,3.95071 3.09042,1.48138 7.40354,2.96287 9.5668,3.4568 8.50538,2.46907 21.84783,11.01231 35.36496,22.71616 4.07573,3.4568 7.55129,5.87653 7.97234,5.33341 1.47803,-1.97544 -7.43943,-15.65444 -16.11938,-25.03724 -13.19013,-14.22227 -22.36279,-20.54339 -38.80463,-26.81503 -8.62623,-3.45679 -10.41331,-3.45679 -22.09861,-3.95057 -11.26868,0 -13.45444,0 -19.19174,1.97529 -11.51516,4.4445 -23.17809,12.39512 -29.5694,20.24709 -9.12779,11.11111 -19.16038,31.90132 -21.44915,44.34594 -1.38841,7.55551 0.80646,7.605 4.96258,0 z m 194.0904,-34.46935 c 11.03143,-3.95072 15.75661,-6.27165 26.04896,-12.93839 6.91979,-4.44451 13.37378,-8.64205 14.35467,-9.13585 11.76595,-6.32097 21.9463,-15.11116 32.11325,-27.75327 7.89171,-9.77776 9.14589,-11.95068 14.01883,-23.90137 6.69139,-16.44451 11.01347,-27.95075 12.27193,-32.74089 2.0155,-7.75314 4.47884,-25.92613 4.47884,-33.23483 0,-21.03717 -3.62775,-30.22234 -19.11563,-48.83978 -5.63884,-6.76543 -10.69999,-12.29632 -11.24631,-12.29632 -0.53721,0 -1.97075,-0.98814 -3.22479,-1.97529 -1.29891,-0.98813 -3.49352,-1.97542 -5.45972,-1.97542 -1.74675,0 -7.09902,-0.98814 -11.79729,-2.46909 -11.12989,-3.45677 -19.02614,-3.95071 -30.33071,-2.4692 -12.96614,1.97542 -18.15271,5.08643 -28.5391,17.48158 -6.91536,8.19758 -8.73822,11.11125 -12.40188,19.95077 -2.32897,5.67905 -4.72075,12.79026 -5.2447,15.70378 -1.56764,9.03716 -0.44747,39.40766 2.1946,55.60535 3.58302,22.46922 4.77892,29.33345 6.43605,36.5928 2.59771,11.30861 2.86645,23.35812 0.80645,33.87663 -2.46334,12.64209 -4.7789,19.70383 -8.70687,26.7657 -1.83626,3.45679 -3.40391,6.37032 -3.40391,6.76543 0,1.97529 5.58069,-1.48151 11.69871,-7.25937 9.72367,-9.08635 18.29162,-20.54324 28.28389,-37.92614 11.43894,-19.90131 18.17519,-33.18536 20.15922,-39.75329 0.71669,-2.46907 2.1051,-6.86424 3.13529,-10.07407 5.10136,-15.95073 8.62622,-32.04962 10.33709,-47.1608 1.03018,-9.08649 1.74676,-10.71614 3.98623,-9.67909 1.03018,0.49337 1.29878,1.4815 0.85069,2.963 -0.44746,0.98813 -2.06037,9.28398 -3.89661,17.77787 -3.98625,18.51864 -10.7,43.40772 -13.24841,49.28424 -1.88112,4.44451 -8.989,18.07418 -18.64541,36.14836 -2.95605,5.6297 -5.41497,10.66681 -5.41497,11.25926 0,1.97544 -5.69254,10.02488 -16.19093,22.71631 -9.98784,12.04936 -12.67516,16.3457 -9.25774,14.71605 0.76095,0 7.47964,-2.963 14.89656,-5.43206 z m -231.77979,-1.03706 c -0.44747,-0.98812 -3.58301,-5.03709 -7.38116,-9.08649 -3.85176,-3.95058 -8.57251,-10.37037 -10.57006,-13.58034 -12.36597,-19.95079 -14.65918,-24.98775 -19.61733,-43.50637 -4.29959,-15.90141 -4.25483,-15.65444 -4.88635,-29.97552 -0.89618,-20.39524 2.86645,-48.24718 6.37336,-47.40763 3.09042,0 3.26954,3.45679 0.76095,12.93826 -2.14987,8.14827 -2.37373,10.568 -2.46334,25.23472 0,20.04946 0.76095,31.16073 2.77695,35.30893 0.85067,1.48149 2.32896,6.96291 3.35902,11.6049 0.98467,4.4445 2.50821,9.38279 3.40402,10.568 0.8962,0.98813 2.50808,4.4445 3.58301,7.01239 3.807,9.1853 20.98336,31.80266 24.23951,31.80266 0.71669,0 0.89619,-0.98814 0.5372,-3.45678 -2.28423,-15.35814 -1.16417,-33.58046 2.86644,-45.28418 1.29879,-3.45693 4.63557,-11.20994 7.42135,-16.44468 9.87143,-18.56796 15.98502,-33.97544 17.45407,-43.85201 0.44748,-1.97529 1.74676,-6.66676 3.13518,-10.12354 5.27162,-12.83959 11.03141,-38.12364 11.05378,-48.49416 0,-9.38264 -2.46332,-18.86426 -7.41251,-27.95075 -4.89531,-9.03702 -9.73705,-15.25932 -15.7566,-20.29643 -2.50809,-1.97529 -4.54595,-3.95058 -4.54595,-4.44436 0,-0.98813 -7.74393,-7.45684 -10.18933,-8.14827 -1.34366,0 -3.18003,-1.48149 -4.1206,-1.97528 -7.7663,-6.07416 -30.38444,-6.02482 -40.30503,0 -2.14986,1.4815 -4.94019,2.46908 -6.21662,2.963 -1.25391,0 -3.4039,1.97528 -4.7655,2.96286 -1.34367,1.48151 -4.93122,3.95073 -7.96338,6.07416 -3.98611,2.46922 -7.56925,6.27165 -13.00203,13.43219 -4.1206,5.43208 -8.12467,11.50622 -8.91291,13.33337 -4.38923,10.51866 -8.80093,23.25943 -9.95651,28.83965 -0.71669,3.45693 -1.88112,9.23465 -2.5977,12.74092 -1.70189,8.24692 -2.55295,42.07435 -1.34365,51.65464 0.71671,5.53089 2.23948,10.02473 6.70035,20.14827 6.3779,14.32095 7.68124,16.39506 19.03954,30.71614 9.5041,11.95068 13.49477,16.29636 23.31234,25.23471 4.16535,3.4568 10.18944,9.33346 13.36936,12.39513 6.82575,6.51862 9.57577,8.44457 22.25081,15.75325 9.428,5.38275 11.17918,5.92587 10.31926,2.963 z"
       inkscape:connector-curvature="0" />
  </g>
</svg>
